<svg xmlns="http://www.w3.org/2000/svg" width="40" height="40" viewBox="0 0 40 40">
  <title>
    Instagram logo
  </title>
  <g fill="none" fill-rule="evenodd">
    <path d="M-4.001-4h48v48h-48z"/>
    <path fill="#FFF" d="M30.665 6.922a2.4 2.4 0 1 0 0 4.798 2.4 2.4 0 0 0 0-4.798M19.993 26.658a6.665 6.665 0 1 1 0-13.329 6.665 6.665 0 0 1 0 13.33m0-16.932c-5.67 0-10.267 4.596-10.267 10.267 0 5.67 4.596 10.267 10.267 10.267 5.67 0 10.267-4.597 10.267-10.267 0-5.67-4.597-10.267-10.267-10.267m0-9.727c-5.43 0-6.111.023-8.244.12-2.128.097-3.581.435-4.853.93a9.801 9.801 0 0 0-3.541 2.306 9.801 9.801 0 0 0-2.306 3.541C.554 8.169.216 9.622.119 11.75.022 13.883 0 14.564 0 19.994s.023 6.11.12 8.243c.097 2.128.435 3.581.93 4.853a9.8 9.8 0 0 0 2.306 3.542 9.8 9.8 0 0 0 3.541 2.306c1.272.494 2.725.832 4.853.93 2.133.096 2.814.12 8.244.12s6.11-.024 8.243-.12c2.128-.098 3.581-.436 4.853-.93a9.8 9.8 0 0 0 3.542-2.306 9.8 9.8 0 0 0 2.306-3.542c.494-1.272.832-2.725.93-4.853.096-2.132.12-2.813.12-8.243s-.024-6.111-.12-8.244c-.098-2.128-.436-3.581-.93-4.853a9.8 9.8 0 0 0-2.306-3.541 9.8 9.8 0 0 0-3.542-2.306C31.817.555 30.364.217 28.236.12 26.104.023 25.423 0 19.993 0m0 3.602c5.338 0 5.97.02 8.079.117 1.95.089 3.008.415 3.712.688.934.363 1.6.796 2.3 1.496.699.7 1.132 1.366 1.495 2.299.274.705.6 1.763.688 3.713.097 2.108.117 2.74.117 8.079 0 5.338-.02 5.97-.117 8.079-.089 1.95-.414 3.008-.688 3.712-.363.934-.796 1.6-1.496 2.3-.7.699-1.365 1.132-2.299 1.495-.704.274-1.763.6-3.712.688-2.108.097-2.74.117-8.08.117-5.338 0-5.97-.02-8.078-.117-1.95-.089-3.008-.414-3.713-.688-.933-.363-1.6-.796-2.299-1.496-.7-.7-1.133-1.365-1.496-2.299-.273-.704-.6-1.763-.688-3.712-.096-2.108-.117-2.74-.117-8.08 0-5.338.02-5.97.117-8.078.089-1.95.415-3.008.688-3.713.363-.933.796-1.6 1.496-2.299.7-.7 1.366-1.133 2.299-1.496.705-.273 1.763-.6 3.713-.688 2.108-.096 2.74-.117 8.079-.117"/>
  </g>
</svg>
