<svg xmlns="http://www.w3.org/2000/svg" width="48" height="34" viewBox="0 0 48 34">
  <title>
    Youtube icon
  </title>
  <g fill="none" fill-rule="evenodd">
    <path d="M0-7h48v48H0z"/>
    <path fill="#FFF" d="M18.988 23.701V10.086l12.741 6.665-12.741 6.95zM47.521 7.335s-.469-3.332-1.909-4.799C43.787.611 41.741.601 40.803.488 34.086 0 24.01 0 24.01 0h-.021S13.914 0 7.197.488c-.939.113-2.984.123-4.81 2.048C.948 4.003.48 7.335.48 7.335S0 11.247 0 15.158v3.668c0 3.912.48 7.824.48 7.824s.468 3.331 1.907 4.798c1.826 1.926 4.225 1.865 5.293 2.066C11.52 33.885 24 34 24 34s10.086-.015 16.803-.504c.938-.112 2.984-.122 4.809-2.048 1.44-1.467 1.909-4.798 1.909-4.798S48 22.738 48 18.826v-3.668c0-3.911-.479-7.823-.479-7.823z"/>
  </g>
</svg>
